<?xml version="1.0" encoding="UTF-8"?>
<svg width="123px" height="32px" viewBox="0 0 123 32" version="1.1" xmlns="http://www.w3.org/2000/svg" xmlns:xlink="http://www.w3.org/1999/xlink">
    <!-- Generator: sketchtool 50.2 (55047) - http://www.bohemiancoding.com/sketch -->
    <title>2EE896AA-85E2-499B-B8ED-A8CA288040AD</title>
    <desc>Created with sketchtool.</desc>
    <defs></defs>
    <g id="27.08.2018" stroke="none" stroke-width="1" fill="none" fill-rule="evenodd">
        <g id="v2_03" transform="translate(-60.000000, -25.000000)">
            <g id="_MENU">
                <g id="Group-16" transform="translate(60.000000, 24.000000)">
                    <g id="logo/color">
                        <g id="Group-31-Copy" transform="translate(0.000000, 1.000000)">
                            <g id="Group" fill="#A48EFF" fill-rule="nonzero">
                                <path d="M24.248937,20.3953677 L24.248937,20.2878839 L27.748937,20.2878839 L27.748937,26.6208516 C27.748937,27.4726127 28.6057776,28.2498194 29.7241543,28.2498194 C30.8425311,28.2498194 31.6993717,27.4726127 31.6993717,26.6208516 L31.6993717,5.37923871 C31.6993717,4.52731272 30.8423729,3.74981935 29.7241543,3.74981935 L29.7241543,0.249819355 C32.7034517,0.249819355 35.1993717,2.51418806 35.1993717,5.37923871 L35.1993717,26.6208516 C35.1993717,29.4858959 32.7034824,31.7498194 29.7241543,31.7498194 C26.7448263,31.7498194 24.248937,29.4858959 24.248937,26.6208516 L24.248937,20.2878839 L27.748937,20.2878839 L27.748937,20.3953677 L24.248937,20.3953677 Z M24.248937,20.3953677 C24.248937,19.9980708 24.0764657,19.6106766 23.7361425,19.3020151 L7.1789566,4.28177128 C6.3974768,3.57277239 5.04416517,3.57277239 4.2622358,4.28195565 C3.92234056,4.59022903 3.75004565,4.97747087 3.75004565,5.37517419 L0.250045652,5.37517419 C0.250045652,3.98795971 0.840979089,2.65980583 1.91089898,1.689425 C4.02696961,-0.229778846 7.41509276,-0.229778846 9.53064447,1.68955906 L26.0876271,16.7096185 C27.1576084,17.6800551 27.748937,19.0082598 27.748937,20.3953677 L24.248937,20.3953677 Z" id="Stroke-1"></path>
                                <path d="M7.70034348,20.3953677 L7.70034348,20.2878839 L11.2003435,20.2878839 L11.2003435,26.6208516 C11.2003435,29.4858959 8.70445418,31.7498194 5.72512609,31.7498194 C2.745798,31.7498194 0.249908696,29.4858959 0.249908696,26.6208516 L0.249908696,5.37923871 C0.249908696,2.51418806 2.74582871,0.249819355 5.72512609,0.249819355 L5.72512609,3.74981935 C4.60690749,3.74981935 3.7499087,4.52731272 3.7499087,5.37923871 L3.7499087,26.6208516 C3.7499087,27.4726127 4.60674938,28.2498194 5.72512609,28.2498194 C6.84350279,28.2498194 7.70034348,27.4726127 7.70034348,26.6208516 L7.70034348,20.2878839 L11.2003435,20.2878839 L11.2003435,20.3953677 L7.70034348,20.3953677 Z M7.70034348,20.3953677 C7.70034348,19.0082598 8.29167202,17.6800551 9.36150553,16.7097526 L25.9185805,1.68960937 C28.0341877,-0.229778846 31.4223108,-0.229778846 33.5383815,1.689425 C34.6083013,2.65980583 35.1992348,3.98795971 35.1992348,5.37517419 L31.6992348,5.37517419 C31.6992348,4.97747087 31.5269399,4.59022903 31.1870446,4.28195565 C30.4051153,3.57277239 29.0518036,3.57277239 28.2702684,4.28182158 L11.7129901,19.3021492 C11.3728148,19.6106766 11.2003435,19.9980708 11.2003435,20.3953677 L7.70034348,20.3953677 Z" id="Stroke-3"></path>
                            </g>
                            <path d="M55.071,2.1 L57.672,2.1 L61.616,9.767 L65.526,2.1 L68.127,2.1 L68.127,14 L66.036,14 L66.036,5.466 L62.33,12.776 L60.868,12.776 L57.145,5.466 L57.145,14 L55.071,14 L55.071,2.1 Z M74.678375,4.837 C75.6190464,4.837 76.4492047,5.02966474 77.168875,5.415 C77.8885453,5.80033526 78.4495397,6.34149651 78.851875,7.0385 C79.2542103,7.73550348 79.455375,8.5373288 79.455375,9.444 C79.455375,10.3620046 79.2542103,11.1723298 78.851875,11.875 C78.4495397,12.5776702 77.8885453,13.1216647 77.168875,13.507 C76.4492047,13.8923353 75.6190464,14.085 74.678375,14.085 C73.7263702,14.085 72.887712,13.8923353 72.162375,13.507 C71.437038,13.1216647 70.8732103,12.5776702 70.470875,11.875 C70.0685397,11.1723298 69.867375,10.3620046 69.867375,9.444 C69.867375,8.5373288 70.0685397,7.73550348 70.470875,7.0385 C70.8732103,6.34149651 71.437038,5.80033526 72.162375,5.415 C72.887712,5.02966474 73.7263702,4.837 74.678375,4.837 Z M74.678375,6.724 C73.9077045,6.724 73.2843774,6.97899745 72.808375,7.489 C72.3323726,7.99900255 72.094375,8.66199592 72.094375,9.478 C72.094375,10.2940041 72.3323726,10.9569974 72.808375,11.467 C73.2843774,11.9770025 73.9077045,12.232 74.678375,12.232 C75.4263787,12.232 76.0383726,11.9770025 76.514375,11.467 C76.9903774,10.9569974 77.228375,10.2940041 77.228375,9.478 C77.228375,8.66199592 76.9903774,7.99900255 76.514375,7.489 C76.0383726,6.97899745 75.4263787,6.724 74.678375,6.724 Z M87.36675,7.778 C86.7547469,7.10932999 85.9614215,6.775 84.98675,6.775 C84.2500797,6.775 83.6522523,7.02433084 83.19325,7.523 C82.7342477,8.02166916 82.50475,8.6676627 82.50475,9.461 C82.50475,10.2770041 82.7342477,10.9343308 83.19325,11.433 C83.6522523,11.9316692 84.2500797,12.181 84.98675,12.181 C86.0747554,12.181 86.8907473,11.8240036 87.43475,11.11 L88.81175,12.249 C88.403748,12.8383363 87.86542,13.2916651 87.19675,13.609 C86.52808,13.9263349 85.7517544,14.085 84.86775,14.085 C83.9724122,14.085 83.1762535,13.8923353 82.47925,13.507 C81.7822465,13.1216647 81.2410853,12.5805035 80.85575,11.8835 C80.4704147,11.1864965 80.27775,10.3846712 80.27775,9.478 C80.27775,8.55999541 80.473248,7.74967018 80.86425,7.047 C81.255252,6.34432982 81.7992465,5.80033526 82.49625,5.415 C83.1932535,5.02966474 83.9950788,4.837 84.90175,4.837 C85.7290875,4.837 86.4685801,4.98149855 87.12025,5.2705 C87.7719199,5.55950144 88.301748,5.97033067 88.70975,6.503 L87.36675,7.778 Z M96.587125,14 L94.122125,10.022 L92.728125,11.484 L92.728125,14 L90.518125,14 L90.518125,1.386 L92.728125,1.386 L92.728125,8.696 L96.468125,4.922 L99.018125,4.922 L95.652125,8.424 L99.222125,14 L96.587125,14 Z M102.2545,9.104 C102.2545,10.0446714 102.520831,10.7813307 103.0535,11.314 C103.586169,11.8466693 104.300162,12.113 105.1955,12.113 C106.090838,12.113 106.796331,11.8466693 107.312,11.314 C107.827669,10.7813307 108.0855,10.0446714 108.0855,9.104 L108.0855,2.1 L110.3635,2.1 L110.3635,9.104 C110.3635,10.1353385 110.153835,11.0334962 109.7345,11.7985 C109.315165,12.5635038 108.717337,13.149998 107.941,13.558 C107.164663,13.966002 106.249505,14.17 105.1955,14.17 C104.130161,14.17 103.203671,13.966002 102.416,13.558 C101.628329,13.149998 101.024835,12.5635038 100.6055,11.7985 C100.186165,11.0334962 99.9765,10.1353385 99.9765,9.104 L99.9765,2.1 L102.2545,2.1 L102.2545,9.104 Z M118.053875,4.837 C118.903879,4.837 119.654705,5.03249804 120.306375,5.4235 C120.958045,5.81450195 121.462373,6.36132982 121.819375,7.064 C122.176377,7.76667018 122.354875,8.57699541 122.354875,9.495 C122.354875,10.4016712 122.17921,11.2006632 121.827875,11.892 C121.47654,12.5833368 120.977878,13.1216647 120.331875,13.507 C119.685872,13.8923353 118.937879,14.085 118.087875,14.085 C117.407872,14.085 116.807211,13.9518347 116.285875,13.6855 C115.764539,13.4191653 115.333877,13.0310026 114.993875,12.521 L114.993875,17.298 L112.783875,17.298 L112.783875,4.905 L114.993875,4.905 L114.993875,6.401 C115.322543,5.89099745 115.744706,5.50283466 116.260375,5.2365 C116.776044,4.97016533 117.373872,4.837 118.053875,4.837 Z M117.560875,12.181 C118.308879,12.181 118.920873,11.9231692 119.396875,11.4075 C119.872877,10.8918308 120.110875,10.2316707 120.110875,9.427 C120.110875,8.62232931 119.872877,7.96500255 119.396875,7.455 C118.920873,6.94499745 118.308879,6.69 117.560875,6.69 C116.801538,6.69 116.183877,6.94499745 115.707875,7.455 C115.231873,7.96500255 114.993875,8.62232931 114.993875,9.427 C114.993875,10.2430041 115.231873,10.9059974 115.707875,11.416 C116.183877,11.9260025 116.801538,12.181 117.560875,12.181 Z M62.551,22.16 C61.9389969,21.7859981 61.3128365,21.497001 60.6725,21.293 C60.0321635,21.088999 59.4683358,20.987 58.981,20.987 C58.4369973,20.987 58.0063349,21.088999 57.689,21.293 C57.3716651,21.497001 57.213,21.7803315 57.213,22.143 C57.213,22.4716683 57.3234989,22.7464989 57.5445,22.9675 C57.7655011,23.1885011 58.043165,23.3698326 58.3775,23.5115 C58.711835,23.6531674 59.1679971,23.8089991 59.746,23.979 C60.5506707,24.2170012 61.2108308,24.4549988 61.7265,24.693 C62.2421692,24.9310012 62.6813315,25.282331 63.044,25.747 C63.4066685,26.211669 63.588,26.8236629 63.588,27.583 C63.588,28.308337 63.392502,28.940164 63.0015,29.4785 C62.610498,30.016836 62.0721701,30.4276653 61.3865,30.711 C60.7008299,30.9943348 59.9160044,31.136 59.032,31.136 C58.102662,31.136 57.1960044,30.9631684 56.312,30.6175 C55.4279956,30.2718316 54.6573366,29.8100029 54,29.232 L54.952,27.294 C55.5526697,27.8493361 56.2269963,28.2856651 56.975,28.603 C57.7230037,28.9203349 58.4199968,29.079 59.066,29.079 C59.7006698,29.079 60.1993315,28.9571679 60.562,28.7135 C60.9246685,28.4698321 61.106,28.1383354 61.106,27.719 C61.106,27.3789983 60.9955011,27.0985011 60.7745,26.8775 C60.5534989,26.6564989 60.2730017,26.4780007 59.933,26.342 C59.5929983,26.2059993 59.1283363,26.0530009 58.539,25.883 C57.7343293,25.6449988 57.0770026,25.4126678 56.567,25.186 C56.0569975,24.9593322 55.6206685,24.6165023 55.258,24.1575 C54.8953315,23.6984977 54.714,23.0950037 54.714,22.347 C54.714,21.6556632 54.8981648,21.0521692 55.2665,20.5365 C55.6348352,20.0208308 56.1561633,19.6213347 56.8305,19.338 C57.5048367,19.0546652 58.2839956,18.913 59.168,18.913 C59.9386705,18.913 60.7008296,19.0263322 61.4545,19.253 C62.2081704,19.4796678 62.8796637,19.7856647 63.469,20.171 L62.551,22.16 Z M70.717375,30.439 C69.992038,30.8810022 69.2327123,31.102 68.439375,31.102 C67.6573711,31.102 67.0170442,30.8725023 66.518375,30.4135 C66.0197058,29.9544977 65.770375,29.2773378 65.770375,28.382 L65.770375,23.894 L64.495375,23.894 L64.478375,22.279 L65.770375,22.279 L65.770375,19.78 L67.963375,19.78 L67.963375,22.279 L70.564375,22.279 L70.564375,23.894 L67.963375,23.894 L67.963375,27.991 C67.963375,28.4103354 68.0427075,28.7078325 68.201375,28.8835 C68.3600425,29.0591675 68.5980401,29.147 68.915375,29.147 C69.2553767,29.147 69.6860391,29.0223346 70.207375,28.773 L70.717375,30.439 Z M80.58375,21.905 L80.58375,31 L78.35675,31 L78.35675,29.317 C77.7447469,30.4956726 76.6907575,31.085 75.19475,31.085 C74.1747449,31.085 73.3700863,30.7733364 72.78075,30.15 C72.1914137,29.5266635 71.89675,28.676672 71.89675,27.6 L71.89675,21.905 L74.12375,21.905 L74.12375,26.954 C74.12375,27.5886698 74.2965816,28.0873315 74.64225,28.45 C74.9879184,28.8126685 75.4667469,28.994 76.07875,28.994 C76.7814202,28.9826666 77.336748,28.7333358 77.74475,28.246 C78.152752,27.7586642 78.35675,27.1410037 78.35675,26.393 L78.35675,21.905 L80.58375,21.905 Z M91.844125,18.386 L91.844125,31 L89.634125,31 L89.634125,29.538 C89.3054567,30.0480025 88.8832942,30.4361653 88.367625,30.7025 C87.8519558,30.9688347 87.2541284,31.102 86.574125,31.102 C85.7127874,31.102 84.9562949,30.906502 84.304625,30.5155 C83.6529551,30.124498 83.1457935,29.5748369 82.783125,28.8665 C82.4204565,28.1581631 82.239125,27.3450046 82.239125,26.427 C82.239125,25.5203288 82.4176232,24.7185035 82.774625,24.0215 C83.1316268,23.3244965 83.6359551,22.7833353 84.287625,22.398 C84.9392949,22.0126647 85.6844541,21.82 86.523125,21.82 C87.2144618,21.82 87.8207891,21.9559986 88.342125,22.228 C88.8634609,22.5000014 89.2941233,22.8909974 89.634125,23.401 L89.634125,18.386 L91.844125,18.386 Z M87.050125,29.249 C87.8094621,29.249 88.4299559,28.9911692 88.911625,28.4755 C89.3932941,27.9598308 89.634125,27.2940041 89.634125,26.478 C89.634125,25.6619959 89.3932941,24.9961692 88.911625,24.4805 C88.4299559,23.9648308 87.8094621,23.707 87.050125,23.707 C86.2907879,23.707 85.6731274,23.9648308 85.197125,24.4805 C84.7211226,24.9961692 84.4774584,25.6619959 84.466125,26.478 C84.4774584,27.2940041 84.7211226,27.9598308 85.197125,28.4755 C85.6731274,28.9911692 86.2907879,29.249 87.050125,29.249 Z M94.4175,21.905 L96.6275,21.905 L96.6275,31 L94.4175,31 L94.4175,21.905 Z M95.5055,17.995 C95.8681685,17.995 96.1684988,18.1196654 96.4065,18.369 C96.6445012,18.6183346 96.7635,18.9356647 96.7635,19.321 C96.7635,19.6950019 96.6445012,20.0066654 96.4065,20.256 C96.1684988,20.5053346 95.8681685,20.63 95.5055,20.63 C95.1428315,20.63 94.8425012,20.5053346 94.6045,20.256 C94.3664988,20.0066654 94.2475,19.6950019 94.2475,19.321 C94.2475,18.9356647 94.3664988,18.6183346 94.6045,18.369 C94.8425012,18.1196654 95.1428315,17.995 95.5055,17.995 Z M103.076875,21.837 C104.017546,21.837 104.847705,22.0296647 105.567375,22.415 C106.287045,22.8003353 106.84804,23.3414965 107.250375,24.0385 C107.65271,24.7355035 107.853875,25.5373288 107.853875,26.444 C107.853875,27.3620046 107.65271,28.1723298 107.250375,28.875 C106.84804,29.5776702 106.287045,30.1216647 105.567375,30.507 C104.847705,30.8923353 104.017546,31.085 103.076875,31.085 C102.12487,31.085 101.286212,30.8923353 100.560875,30.507 C99.835538,30.1216647 99.2717103,29.5776702 98.869375,28.875 C98.4670397,28.1723298 98.265875,27.3620046 98.265875,26.444 C98.265875,25.5373288 98.4670397,24.7355035 98.869375,24.0385 C99.2717103,23.3414965 99.835538,22.8003353 100.560875,22.415 C101.286212,22.0296647 102.12487,21.837 103.076875,21.837 Z M103.076875,23.724 C102.306204,23.724 101.682877,23.9789974 101.206875,24.489 C100.730873,24.9990025 100.492875,25.6619959 100.492875,26.478 C100.492875,27.2940041 100.730873,27.9569974 101.206875,28.467 C101.682877,28.9770025 102.306204,29.232 103.076875,29.232 C103.824879,29.232 104.436873,28.9770025 104.912875,28.467 C105.388877,27.9569974 105.626875,27.2940041 105.626875,26.478 C105.626875,25.6619959 105.388877,24.9990025 104.912875,24.489 C104.436873,23.9789974 103.824879,23.724 103.076875,23.724 Z" id="MockUp-Studio" fill="#000000"></path>
                        </g>
                    </g>
                </g>
            </g>
        </g>
    </g>
</svg>